<svg width="512" height="512" viewBox="0 0 100 100" fill="none" xmlns="http://www.w3.org/2000/svg">
  <defs>
    
    <linearGradient id="grad-ab_pos" x1="96%" y1="50%" x2="50%" y2="4%">
      <stop offset="0%" stop-color="#FF0000" />
      <stop offset="100%" stop-color="#FFFF00" />
    </linearGradient>
    <linearGradient id="grad-ba_neg" x1="50%" y1="4%" x2="4%" y2="49.99999999999999%">
      <stop offset="0%" stop-color="#FFFF00" />
      <stop offset="100%" stop-color="#00FF00" />
    </linearGradient>
    <linearGradient id="grad-ab_neg" x1="4%" y1="49.99999999999999%" x2="49.99999999999999%" y2="96%">
      <stop offset="0%" stop-color="#00FF00" />
      <stop offset="100%" stop-color="#0000FF" />
    </linearGradient>
    <linearGradient id="grad-ba_pos" x1="49.99999999999999%" y1="96%" x2="96%" y2="50.000000000000014%">
      <stop offset="0%" stop-color="#0000FF" />
      <stop offset="100%" stop-color="#FF0000" />
    </linearGradient>
  </defs>
  <g>
    <path d="M 96 50 A 46 46 0 0 0 50 4 L 50 21 A 29 29 0 0 1 79 50 Z" fill="url(#grad-ab_pos)" />
    <path d="M 50 4 A 46 46 0 0 0 4 49.99999999999999 L 21 50 A 29 29 0 0 1 50 21 Z" fill="url(#grad-ba_neg)" />
    <path d="M 4 49.99999999999999 A 46 46 0 0 0 49.99999999999999 96 L 49.99999999999999 79 A 29 29 0 0 1 21 50 Z" fill="url(#grad-ab_neg)" />
    <path d="M 49.99999999999999 96 A 46 46 0 0 0 96 50.000000000000014 L 79 50.00000000000001 A 29 29 0 0 1 49.99999999999999 79 Z" fill="url(#grad-ba_pos)" />
  </g>
</svg>