<svg width="512" height="512" viewBox="0 0 512 512" fill="none" xmlns="http://www.w3.org/2000/svg">
  <rect width="512" height="512" rx="96" fill="url(#bg)"/>
  <rect x="68" y="68" width="376" height="376" rx="110" fill="rgba(255,255,255,0.04)"/>
  <g filter="url(#shadow)">
    <rect x="148" y="146" width="190" height="244" rx="68" transform="rotate(-18 148 146)" fill="url(#chipWarm)"/>
    <rect x="233" y="142" width="176" height="232" rx="62" transform="rotate(12 233 142)" fill="url(#chipCool)"/>
    <rect x="185" y="250" width="170" height="94" rx="44" fill="#F8FAFC" fill-opacity="0.9"/>
  </g>
  <path d="M216 302C244 278 291 268 328 274" stroke="#0F172A" stroke-width="16" stroke-linecap="round" opacity="0.72"/>
  <circle cx="215" cy="206" r="28" fill="#F97316" fill-opacity="0.94"/>
  <circle cx="264" cy="195" r="28" fill="#FB7185" fill-opacity="0.94"/>
  <circle cx="317" cy="209" r="28" fill="#22C55E" fill-opacity="0.94"/>
  <circle cx="238" cy="254" r="28" fill="#FACC15" fill-opacity="0.94"/>
  <circle cx="292" cy="249" r="28" fill="#38BDF8" fill-opacity="0.94"/>
  <defs>
    <linearGradient id="bg" x1="44" y1="34" x2="463" y2="480" gradientUnits="userSpaceOnUse">
      <stop stop-color="#09111F"/>
      <stop offset="0.52" stop-color="#101C34"/>
      <stop offset="1" stop-color="#060C18"/>
    </linearGradient>
    <linearGradient id="chipWarm" x1="160" y1="156" x2="332" y2="360" gradientUnits="userSpaceOnUse">
      <stop stop-color="#FDE68A"/>
      <stop offset="0.42" stop-color="#FB7185"/>
      <stop offset="1" stop-color="#F97316"/>
    </linearGradient>
    <linearGradient id="chipCool" x1="243" y1="154" x2="396" y2="348" gradientUnits="userSpaceOnUse">
      <stop stop-color="#93C5FD"/>
      <stop offset="0.45" stop-color="#38BDF8"/>
      <stop offset="1" stop-color="#8B5CF6"/>
    </linearGradient>
    <filter id="shadow" x="78" y="92" width="360" height="360" filterUnits="userSpaceOnUse" color-interpolation-filters="sRGB">
      <feFlood flood-opacity="0" result="BackgroundImageFix"/>
      <feColorMatrix in="SourceAlpha" type="matrix" values="0 0 0 0 0 0 0 0 0 0 0 0 0 0 0 0 0 0 127 0" result="hardAlpha"/>
      <feOffset dy="28"/>
      <feGaussianBlur stdDeviation="22"/>
      <feComposite in2="hardAlpha" operator="out"/>
      <feColorMatrix type="matrix" values="0 0 0 0 0.0196078 0 0 0 0 0.0666667 0 0 0 0 0.14902 0 0 0 0.42 0"/>
      <feBlend mode="normal" in2="BackgroundImageFix" result="effect1_dropShadow_0_1"/>
      <feBlend mode="normal" in="SourceGraphic" in2="effect1_dropShadow_0_1" result="shape"/>
    </filter>
  </defs>
</svg>