<svg width="512" height="512" viewBox="0 0 512 512" fill="none" xmlns="http://www.w3.org/2000/svg">
  <rect width="512" height="512" rx="136" fill="url(#bg)"/>
  <rect x="26" y="26" width="460" height="460" rx="112" fill="rgba(255,255,255,0.03)" stroke="rgba(255,255,255,0.12)" stroke-width="10"/>
  <g filter="url(#shadow)">
    <rect x="150" y="144" width="184" height="236" rx="66" transform="rotate(-18 150 144)" fill="url(#chipWarm)"/>
    <rect x="230" y="140" width="170" height="224" rx="60" transform="rotate(12 230 140)" fill="url(#chipCool)"/>
    <rect x="184" y="244" width="166" height="90" rx="42" fill="#F8FAFC" fill-opacity="0.9"/>
  </g>
  <path d="M214 294C241 270 288 260 325 266" stroke="#0F172A" stroke-width="15" stroke-linecap="round" opacity="0.72"/>
  <circle cx="214" cy="200" r="27" fill="#F97316" fill-opacity="0.94"/>
  <circle cx="262" cy="189" r="27" fill="#FB7185" fill-opacity="0.94"/>
  <circle cx="314" cy="202" r="27" fill="#22C55E" fill-opacity="0.94"/>
  <circle cx="236" cy="248" r="27" fill="#FACC15" fill-opacity="0.94"/>
  <circle cx="289" cy="242" r="27" fill="#38BDF8" fill-opacity="0.94"/>
  <defs>
    <linearGradient id="bg" x1="54" y1="34" x2="462" y2="478" gradientUnits="userSpaceOnUse">
      <stop stop-color="#09111F"/>
      <stop offset="0.52" stop-color="#101C34"/>
      <stop offset="1" stop-color="#060C18"/>
    </linearGradient>
    <linearGradient id="chipWarm" x1="160" y1="154" x2="328" y2="354" gradientUnits="userSpaceOnUse">
      <stop stop-color="#FDE68A"/>
      <stop offset="0.42" stop-color="#FB7185"/>
      <stop offset="1" stop-color="#F97316"/>
    </linearGradient>
    <linearGradient id="chipCool" x1="240" y1="150" x2="388" y2="338" gradientUnits="userSpaceOnUse">
      <stop stop-color="#93C5FD"/>
      <stop offset="0.45" stop-color="#38BDF8"/>
      <stop offset="1" stop-color="#8B5CF6"/>
    </linearGradient>
    <filter id="shadow" x="81" y="91" width="350" height="350" filterUnits="userSpaceOnUse" color-interpolation-filters="sRGB">
      <feFlood flood-opacity="0" result="BackgroundImageFix"/>
      <feColorMatrix in="SourceAlpha" type="matrix" values="0 0 0 0 0 0 0 0 0 0 0 0 0 0 0 0 0 0 127 0" result="hardAlpha"/>
      <feOffset dy="30"/>
      <feGaussianBlur stdDeviation="22"/>
      <feComposite in2="hardAlpha" operator="out"/>
      <feColorMatrix type="matrix" values="0 0 0 0 0.0196078 0 0 0 0 0.0666667 0 0 0 0 0.14902 0 0 0 0.4 0"/>
      <feBlend mode="normal" in2="BackgroundImageFix" result="effect1_dropShadow_0_1"/>
      <feBlend mode="normal" in="SourceGraphic" in2="effect1_dropShadow_0_1" result="shape"/>
    </filter>
  </defs>
</svg>