<svg width="192" height="192" viewBox="0 0 192 192" fill="none" xmlns="http://www.w3.org/2000/svg">
  <rect width="192" height="192" rx="52" fill="url(#bg)"/>
  <rect x="10" y="10" width="172" height="172" rx="42" fill="rgba(255,255,255,0.03)" stroke="rgba(255,255,255,0.12)" stroke-width="4"/>
  <g filter="url(#shadow)">
    <rect x="56" y="54" width="68" height="86" rx="24" transform="rotate(-18 56 54)" fill="url(#chipWarm)"/>
    <rect x="86" y="52" width="62" height="82" rx="22" transform="rotate(12 86 52)" fill="url(#chipCool)"/>
    <rect x="69" y="88" width="62" height="34" rx="16" fill="#F8FAFC" fill-opacity="0.9"/>
  </g>
  <path d="M80 108C90 99 108 95 122 97" stroke="#0F172A" stroke-width="6" stroke-linecap="round" opacity="0.72"/>
  <circle cx="80" cy="74" r="10" fill="#F97316" fill-opacity="0.94"/>
  <circle cx="98" cy="70" r="10" fill="#FB7185" fill-opacity="0.94"/>
  <circle cx="118" cy="75" r="10" fill="#22C55E" fill-opacity="0.94"/>
  <circle cx="88" cy="92" r="10" fill="#FACC15" fill-opacity="0.94"/>
  <circle cx="108" cy="90" r="10" fill="#38BDF8" fill-opacity="0.94"/>
  <defs>
    <linearGradient id="bg" x1="18" y1="14" x2="174" y2="176" gradientUnits="userSpaceOnUse">
      <stop stop-color="#09111F"/>
      <stop offset="0.52" stop-color="#101C34"/>
      <stop offset="1" stop-color="#060C18"/>
    </linearGradient>
    <linearGradient id="chipWarm" x1="60" y1="58" x2="122" y2="130" gradientUnits="userSpaceOnUse">
      <stop stop-color="#FDE68A"/>
      <stop offset="0.42" stop-color="#FB7185"/>
      <stop offset="1" stop-color="#F97316"/>
    </linearGradient>
    <linearGradient id="chipCool" x1="90" y1="56" x2="142" y2="126" gradientUnits="userSpaceOnUse">
      <stop stop-color="#93C5FD"/>
      <stop offset="0.45" stop-color="#38BDF8"/>
      <stop offset="1" stop-color="#8B5CF6"/>
    </linearGradient>
    <filter id="shadow" x="30" y="31" width="132" height="132" filterUnits="userSpaceOnUse" color-interpolation-filters="sRGB">
      <feFlood flood-opacity="0" result="BackgroundImageFix"/>
      <feColorMatrix in="SourceAlpha" type="matrix" values="0 0 0 0 0 0 0 0 0 0 0 0 0 0 0 0 0 0 127 0" result="hardAlpha"/>
      <feOffset dy="12"/>
      <feGaussianBlur stdDeviation="10"/>
      <feComposite in2="hardAlpha" operator="out"/>
      <feColorMatrix type="matrix" values="0 0 0 0 0.0196078 0 0 0 0 0.0666667 0 0 0 0 0.14902 0 0 0 0.4 0"/>
      <feBlend mode="normal" in2="BackgroundImageFix" result="effect1_dropShadow_0_1"/>
      <feBlend mode="normal" in="SourceGraphic" in2="effect1_dropShadow_0_1" result="shape"/>
    </filter>
  </defs>
</svg>